<?xml version="1.0" standalone="no"?><!DOCTYPE svg PUBLIC "-//W3C//DTD SVG 1.1//EN"
        "http://www.w3.org/Graphics/SVG/1.1/DTD/svg11.dtd">
<svg class="icon" viewBox="0 0 1024 1024" version="1.1" xmlns="http://www.w3.org/2000/svg"
     width="200" height="200">
    <path d="M621.048832 162.504704c-20.02944 0-37.832704 2.226176-55.636992 4.451328-22.254592-2.225152-75.666432-6.677504-100.1472-6.677504-235.901952 0-442.872832 89.042944-442.872832 398.46912 0 251.547648 195.843072 456.347648 471.803904 456.347648 275.961856 0 500.736-204.8 500.736-456.347648 0-311.652352-260.38272-396.242944-373.88288-396.242944"
          fill="#DD2E44"/>
    <path d="M229.362688 17.808384C273.871872 62.33088 307.254272 80.139264 320.607232 153.6c8.902656 44.521472 62.314496 42.295296 62.314496 42.295296s-109.049856 48.973824-153.55904 93.49632c0 0 135.754752-44.522496 182.490112-44.522496 0 0 91.245568 44.522496 91.245568 91.26912 0 0 0-91.26912-44.510208-91.26912 0 0 135.754752 0 135.754752 91.26912 0 0 0-135.790592-44.509184-135.790592 0 0 135.754752-44.521472 182.490112 0 0 0-46.73536-46.747648-135.754752-44.521472 0 0 44.509184-44.521472 135.754752-44.521472 0 0-146.88256-42.29632-193.61792 48.973824 0 0-37.833728-37.843968 37.833728-115.757056 0 0-120.17664 20.03456-120.17664 111.304704 0 0-42.285056 0-73.44128-35.617792-60.08832-69.008384-153.55904-102.4-153.55904-102.4"
          fill="#77B255"/>
</svg>